<svg width="1189" height="534" viewBox="0 0 1189 534" fill="none" xmlns="http://www.w3.org/2000/svg">
<g filter="url(#filter0_di_138_2116)">
<path d="M31.6476 44C31.6476 21.3563 50.0039 3 72.6476 3H1122.77C1134.08 3 1143.24 12.1631 1143.24 23.4664C1143.24 34.7698 1134.08 43.9329 1122.77 43.9329H1092.75C1077.69 43.9329 1071.28 63.0924 1083.31 72.1514C1086.03 74.1991 1089.34 75.3066 1092.75 75.3066H1111.04C1123.38 75.3066 1129.85 89.9683 1121.53 99.082C1113.2 108.196 1119.67 122.857 1132.01 122.857H1150.13C1154.33 122.857 1158.45 124.051 1162 126.299L1170.31 131.561C1194.23 146.708 1187.28 183.316 1159.48 188.647C1157.54 189.018 1155.57 189.205 1153.59 189.205H1102.06C1100.57 189.205 1099.08 189.394 1097.63 189.768C1081.11 194.034 1079.57 216.896 1095.37 223.339L1104.72 227.149C1112.64 230.382 1117.83 238.092 1117.83 246.655V316.406V419.946C1117.83 428.681 1111.38 436.123 1102.75 437.462C1082.64 440.58 1082.35 469.756 1102.52 472.421C1111.28 473.578 1117.83 481.046 1117.83 489.881V499.928C1117.83 515.984 1104.81 529 1088.76 529H72.6476C50.004 529 31.6476 510.644 31.6476 488V412.958C31.6476 402.213 39.8863 393.263 50.5947 392.374C75.8223 390.281 75.7751 353.366 50.5534 351.203C39.8648 350.286 31.6476 341.342 31.6476 330.614V320.167C31.6476 312.334 25.9984 305.571 18.3133 304.051C0.578392 300.544 0.232056 274.904 18.0652 271.936C25.9025 270.633 31.6476 263.853 31.6476 255.907V137.569C31.6476 129.191 38.0491 122.139 46.3748 121.204C66.1919 118.979 66.8423 89.7954 46.9407 88.5325C38.3423 87.9868 31.6476 80.8539 31.6476 72.2381V44Z" fill="white"/>
</g>
<defs>
<filter id="filter0_di_138_2116" x="0.850304" y="0" width="1188.01" height="534" filterUnits="userSpaceOnUse" color-interpolation-filters="sRGB">
<feFlood flood-opacity="0" result="BackgroundImageFix"/>
<feColorMatrix in="SourceAlpha" type="matrix" values="0 0 0 0 0 0 0 0 0 0 0 0 0 0 0 0 0 0 127 0" result="hardAlpha"/>
<feOffset dy="1"/>
<feGaussianBlur stdDeviation="2"/>
<feComposite in2="hardAlpha" operator="out"/>
<feColorMatrix type="matrix" values="0 0 0 0 0 0 0 0 0 0 0 0 0 0 0 0 0 0 0.17 0"/>
<feBlend mode="normal" in2="BackgroundImageFix" result="effect1_dropShadow_138_2116"/>
<feBlend mode="normal" in="SourceGraphic" in2="effect1_dropShadow_138_2116" result="shape"/>
<feColorMatrix in="SourceAlpha" type="matrix" values="0 0 0 0 0 0 0 0 0 0 0 0 0 0 0 0 0 0 127 0" result="hardAlpha"/>
<feOffset dy="1"/>
<feGaussianBlur stdDeviation="2"/>
<feComposite in2="hardAlpha" operator="arithmetic" k2="-1" k3="1"/>
<feColorMatrix type="matrix" values="0 0 0 0 0 0 0 0 0 0 0 0 0 0 0 0 0 0 0.17 0"/>
<feBlend mode="normal" in2="shape" result="effect2_innerShadow_138_2116"/>
</filter>
</defs>
</svg>
